# xmcd CD database file
# Copyright (C) 1995 Ti Kan
#
# Track frame offsets:
#	150
#	16640
#	33930
#	50595
#	79104
#	97980
#	113195
#	131070
#	146610
#	164557
#	191387
#	209155
#
# Disc length: 3011 seconds
#
# Revision: 0
# Processed by: cddbd v1.4b41PL1 Copyright (c) Steve Scherf et al.
# Submitted via: NotifyCDPlayer(CDDB) 1.05
#
DISCID=a20bc10c
DTITLE=Sole Purpose - Secret Life
DYEAR=1900
DGENRE=
TTITLE0=Love So Strong (Single Version)
TTITLE1=I Want You
TTITLE2=Got To Have Your Love
TTITLE3=Borrowed Time
TTITLE4=Sweet Inspiration
TTITLE5=She Holds the Key
TTITLE6=As Always
TTITLE7=Fantasy
TTITLE8=Again and Again
TTITLE9=46 Chromosomes
TTITLE10=Love So Strong (Album Version)
TTITLE11=Lullaby
EXTD=
EXTT0=
EXTT1=
EXTT2=
EXTT3=
EXTT4=
EXTT5=
EXTT6=
EXTT7=
EXTT8=
EXTT9=
EXTT10=
EXTT11=
PLAYORDER=
